<?xml version="1.0" standalone="no"?>
<!DOCTYPE svg PUBLIC "-//W3C//DTD SVG 20010904//EN"
        "http://www.w3.org/TR/2001/REC-SVG-20010904/DTD/svg10.dtd">
<svg version="1.0" xmlns="http://www.w3.org/2000/svg"
     width="1464.000000pt" height="1088.000000pt" viewBox="0 0 1464.000000 1088.000000"
     preserveAspectRatio="xMidYMid meet">
    <metadata>
        Created by potrace 1.16, written by Peter Selinger 2001-2019
    </metadata>
    <g transform="translate(0.000000,1088.000000) scale(0.100000,-0.100000)"
       fill="#FFF" stroke="none">
        <path d="M1637 9761 c-73 -48 -79 -114 -23 -231 20 -41 55 -100 76 -130 40
-54 102 -144 170 -244 19 -29 51 -72 71 -96 43 -52 177 -245 233 -334 90 -142
154 -234 197 -282 48 -53 111 -142 149 -210 21 -36 180 -266 262 -378 21 -28
58 -80 83 -116 25 -36 79 -112 120 -170 41 -58 101 -148 134 -200 32 -52 89
-131 126 -175 60 -73 100 -131 274 -395 30 -47 74 -107 96 -134 22 -27 51 -66
65 -86 14 -21 46 -68 72 -106 25 -38 83 -121 127 -184 44 -63 106 -153 137
-200 60 -89 172 -240 222 -300 16 -19 32 -44 36 -56 9 -30 50 -66 68 -59 9 4
39 41 67 85 28 43 68 98 89 122 59 69 94 117 156 213 32 50 67 101 77 115 10
14 60 85 110 159 92 137 119 174 167 237 73 96 122 167 245 354 30 47 74 110
96 140 22 30 48 65 57 77 20 28 14 57 -21 103 -14 19 -66 96 -116 170 -153
230 -237 352 -286 418 -43 57 -178 246 -233 327 -11 17 -43 66 -71 110 -51 80
-95 138 -177 238 -24 28 -53 70 -64 91 -23 45 -76 125 -161 241 -32 44 -78
109 -102 145 -25 36 -52 76 -62 90 -9 14 -27 36 -39 50 -22 24 -78 105 -201
290 -102 153 -179 216 -363 297 l-65 28 -885 3 c-849 2 -886 1 -913 -17z"/>
        <path d="M7756 9769 c-22 -5 -81 -29 -131 -53 -102 -48 -190 -120 -245 -200
-109 -160 -206 -295 -231 -321 -15 -16 -48 -61 -73 -100 -25 -38 -62 -95 -83
-125 -104 -149 -173 -252 -212 -315 -24 -38 -62 -91 -85 -116 -54 -60 -153
-199 -196 -274 -41 -73 -191 -285 -237 -336 -18 -20 -66 -89 -107 -152 -74
-116 -154 -230 -371 -532 -129 -179 -158 -221 -238 -350 -31 -49 -75 -114 -99
-142 -86 -105 -126 -160 -195 -268 -59 -95 -146 -219 -323 -460 -95 -131 -118
-163 -140 -200 -13 -22 -35 -53 -48 -70 -13 -16 -49 -70 -79 -120 -31 -49 -68
-103 -83 -120 -15 -16 -37 -47 -49 -67 -13 -21 -26 -38 -30 -38 -5 0 -46 -57
-93 -127 -47 -71 -106 -159 -132 -198 -26 -38 -67 -97 -91 -130 -78 -106 -259
-364 -281 -400 -11 -19 -29 -45 -41 -57 -11 -13 -40 -54 -64 -93 -72 -112 -88
-135 -202 -286 -60 -79 -133 -184 -162 -234 -30 -49 -92 -139 -139 -200 -47
-60 -117 -157 -155 -215 -38 -58 -78 -116 -89 -130 -10 -14 -63 -90 -117 -170
-54 -80 -114 -165 -134 -190 -21 -25 -54 -70 -74 -100 -20 -30 -57 -84 -83
-119 -25 -35 -70 -103 -99 -150 -77 -122 -123 -187 -175 -245 -25 -28 -72 -91
-104 -141 -162 -246 -285 -425 -329 -480 -34 -42 -57 -74 -206 -291 -91 -133
-142 -228 -155 -290 -10 -44 15 -99 56 -124 32 -20 48 -20 901 -20 l867 0 94
31 c52 17 102 39 112 50 9 10 22 19 28 19 6 0 35 18 64 39 72 52 133 125 191
230 14 25 60 90 151 211 22 30 54 75 71 100 16 25 49 72 74 105 24 33 105 150
180 260 146 215 171 249 226 316 38 47 76 102 184 269 62 96 175 253 243 339
15 19 45 63 67 97 46 72 250 371 290 424 14 19 47 62 73 95 26 33 82 113 126
178 43 64 81 117 84 117 3 0 60 -27 126 -60 149 -74 326 -140 456 -170 30 -7
82 -21 115 -31 65 -19 120 -32 230 -55 39 -8 120 -25 180 -38 243 -53 315 -66
430 -81 66 -8 161 -22 210 -30 50 -8 142 -19 205 -24 63 -6 167 -15 230 -21
288 -27 520 -34 1100 -35 818 0 1075 18 1810 125 41 6 104 17 140 25 87 20
303 65 364 76 112 19 467 115 521 140 11 5 61 23 110 40 105 37 241 106 305
155 214 164 229 185 241 331 11 131 10 1605 -1 1624 -7 10 -14 9 -35 -5 -14
-9 -28 -23 -31 -31 -6 -16 -120 -111 -193 -162 -101 -70 -300 -162 -451 -207
-193 -59 -428 -119 -560 -143 -14 -3 -59 -11 -100 -19 -102 -21 -292 -54 -365
-64 -33 -5 -121 -18 -195 -29 -74 -12 -205 -28 -290 -36 -85 -8 -202 -19 -260
-25 -589 -56 -1586 -52 -2150 9 -107 11 -260 28 -340 36 -80 9 -161 20 -180
25 -19 5 -73 14 -120 20 -226 27 -675 122 -743 157 -42 21 -80 9 -113 -38 -15
-22 -35 -46 -45 -52 -9 -7 -30 -33 -45 -59 -34 -55 -205 -308 -265 -393 -24
-33 -57 -80 -74 -105 -26 -38 -134 -187 -195 -270 -11 -14 -34 -49 -52 -78
-96 -153 -139 -216 -199 -288 -37 -43 -110 -144 -162 -224 -53 -80 -118 -176
-144 -215 -27 -38 -76 -108 -108 -155 -32 -47 -71 -101 -87 -122 -44 -57 -89
-121 -194 -278 -133 -199 -151 -225 -174 -252 -48 -57 -94 -120 -157 -216
-101 -153 -242 -354 -264 -378 -11 -11 -32 -39 -47 -61 -15 -23 -61 -89 -102
-149 -41 -59 -119 -173 -172 -253 -53 -80 -119 -174 -145 -209 -26 -35 -57
-76 -68 -91 -43 -58 -130 -132 -189 -161 l-61 -30 -643 0 c-353 -1 -647 2
-652 5 -21 13 -8 55 33 111 24 33 88 127 142 209 55 83 120 175 145 205 55 64
148 197 205 290 62 102 174 261 215 305 21 22 63 81 95 130 66 103 94 145 150
226 22 32 70 102 107 156 37 54 102 143 144 198 42 55 120 168 174 250 101
153 161 239 216 303 37 44 81 109 214 313 51 79 105 155 141 199 20 25 68 91
105 146 38 56 98 143 134 193 36 51 88 127 115 170 69 108 97 147 150 211 42
51 109 148 194 280 58 89 173 252 205 291 34 40 108 145 160 224 18 28 61 91
95 140 35 50 88 128 119 175 31 47 84 119 118 160 33 41 74 95 89 120 15 25
33 48 39 52 16 11 74 10 80 -1 21 -33 460 -211 731 -296 66 -21 134 -43 150
-51 36 -15 143 -44 280 -73 55 -12 118 -27 140 -33 22 -5 64 -14 95 -19 30 -4
154 -24 275 -44 121 -20 256 -40 300 -45 44 -4 143 -15 220 -24 284 -31 539
-41 1045 -41 551 0 747 9 1185 55 522 54 1074 154 1270 229 28 10 76 24 108
31 51 10 259 86 344 125 17 8 34 15 38 15 8 0 38 13 155 67 191 88 339 229
400 383 20 50 20 72 20 953 l0 902 -29 102 c-29 100 -71 196 -91 208 -6 3 -19
23 -29 43 -31 60 -164 213 -233 267 -34 28 -97 73 -138 100 -41 26 -86 55
-100 65 -50 33 -211 111 -297 145 -48 18 -108 43 -132 55 -154 76 -578 177
-916 219 -424 53 -452 54 -1580 57 -652 2 -1075 -1 -1099 -7z m2154 -299 c350
-23 749 -77 940 -127 30 -8 82 -21 115 -28 119 -26 237 -65 366 -120 153 -65
285 -130 294 -145 3 -5 36 -30 73 -54 91 -60 254 -202 291 -253 70 -97 114
-219 113 -309 -4 -157 -103 -246 -409 -367 -180 -72 -527 -170 -708 -201 -44
-8 -188 -34 -320 -59 -282 -52 -348 -62 -555 -82 -572 -54 -1135 -66 -1605
-34 -547 37 -898 101 -1400 255 -134 41 -301 118 -315 145 -12 21 -8 31 48
119 60 94 112 170 206 300 49 69 121 170 160 225 38 55 85 123 105 150 19 28
63 93 98 145 35 52 78 117 96 144 53 80 187 226 226 245 20 10 54 28 76 40 39
21 40 21 1005 20 531 0 1026 -4 1100 -9z m2190 -2140 c0 -486 -2 -586 -14
-609 -17 -32 -101 -99 -166 -131 -25 -13 -63 -35 -86 -51 -23 -15 -65 -39 -95
-52 -30 -13 -81 -37 -114 -52 -68 -32 -325 -107 -520 -153 -411 -97 -1053
-192 -1485 -221 -492 -33 -817 -39 -1155 -21 -252 13 -545 38 -675 57 -58 8
-136 19 -175 24 -111 14 -654 107 -665 114 -4 2 -31 9 -61 14 -83 14 -352 85
-464 121 -55 17 -120 38 -145 44 -45 13 -106 40 -315 141 -60 30 -127 60 -147
69 -25 10 -39 23 -44 41 -7 28 1 42 102 172 33 43 73 101 89 128 16 28 60 93
98 145 37 52 90 129 117 170 26 41 61 91 78 110 47 56 249 346 272 389 35 69
74 75 149 25 52 -34 277 -129 375 -157 79 -24 226 -64 316 -86 122 -31 499
-95 655 -111 50 -5 153 -16 230 -24 384 -41 667 -50 1110 -36 343 11 766 46
1090 90 39 5 108 14 155 21 47 6 135 20 195 31 61 10 151 26 200 34 108 18
532 124 632 158 66 22 162 65 342 153 37 17 78 32 94 32 l27 1 0 -580z"/>
        <path d="M12382 3519 c-38 -47 -114 -116 -180 -166 -54 -41 -210 -122 -262
-137 -14 -4 -59 -20 -100 -36 -97 -37 -365 -120 -500 -155 -58 -15 -118 -31
-135 -36 -16 -4 -84 -18 -150 -29 -66 -12 -136 -25 -155 -30 -35 -9 -209 -35
-435 -65 -174 -23 -529 -52 -850 -71 -353 -20 -1182 -14 -1485 10 -449 37
-825 86 -1085 142 -38 8 -103 21 -143 29 -41 8 -78 18 -83 21 -5 3 -62 18
-126 34 -65 16 -163 46 -218 65 -55 20 -131 45 -170 55 -90 24 -110 31 -291
107 -160 67 -162 67 -183 54 -16 -10 -3 -33 69 -123 25 -31 77 -106 115 -168
77 -122 192 -287 237 -338 15 -18 65 -88 111 -155 233 -344 280 -414 290 -434
7 -12 28 -39 47 -60 20 -21 51 -60 70 -87 77 -109 135 -195 183 -271 60 -95
126 -187 185 -258 24 -29 61 -82 82 -118 47 -80 112 -163 143 -183 32 -22 610
-72 997 -87 585 -22 1395 -2 1850 46 237 26 633 80 760 104 85 17 193 37 240
46 181 35 691 201 850 277 151 72 302 195 346 281 29 56 35 245 32 1008 -2
595 -6 753 -16 757 -7 2 -25 -11 -40 -29z"/>
    </g>
</svg>
