<?xml version="1.0" encoding="utf-8"?>
<!-- Generator: Adobe Illustrator 27.8.1, SVG Export Plug-In . SVG Version: 6.00 Build 0)  -->
<svg version="1.1" id="Layer_1" xmlns="http://www.w3.org/2000/svg" xmlns:xlink="http://www.w3.org/1999/xlink" x="0px" y="0px"
	 viewBox="0 0 57 32" style="enable-background:new 0 0 57 32;" xml:space="preserve">
<g>
	<g>
		<path style="fill:#FFFFFF;" d="M24.8,17.4l-5.3,6.4l5.8,6.9c0.6,0.7,1.7,1.3,2.5,1.3h8c0.7,0,0.8-0.6,0.2-1.3L24.8,17.4z"/>
		<path style="fill:#FFFFFF;" d="M11.8,14.6l5.3-6.4l-5.8-6.9C10.7,0.6,9.6,0,8.9,0h-8C0.2,0,0.1,0.6,0.7,1.3L11.8,14.6z"/>
	</g>
	<path style="fill:#FFFFFF;" d="M8.9,32h-8c-0.7,0-0.8-0.6-0.2-1.3L25.3,1.3C25.9,0.6,27,0,27.8,0h8c0.7,0,0.8,0.6,0.2,1.3
		L11.4,30.7C10.7,31.4,9.6,32,8.9,32z"/>
	<path style="fill:#FFFFFF;" d="M26.5,15.3l4.7-5.6c0.3-0.4,0.9-0.7,1.4-0.7h12.8c0.4,0,0.5,0.3,0.1,0.7l-4.7,5.6
		c-0.3,0.4-0.9,0.7-1.4,0.7H26.7C26.3,16,26.2,15.7,26.5,15.3z"/>
	<path style="fill:#FFFFFF;" d="M34.1,6.3l4.6-5.5C39.1,0.4,39.8,0,40.2,0h16.1c0.5,0,0.5,0.4,0.1,0.8l-4.6,5.5
		c-0.4,0.5-1.1,0.8-1.5,0.8H34.2C33.8,7.1,33.7,6.7,34.1,6.3z"/>
</g>
</svg>
