<svg xmlns="http://www.w3.org/2000/svg" xml:space="preserve" style="enable-background:new 0 0 258.7 32" viewBox="0 0 258.7 32"><path d="M67.1 26.6h-3.7l7.1-9.9-6.6-9.5h3.7l5 7.1 5-7.1h3.7l-6.8 9.4 7.2 9.9H78L72.5 19l-5.4 7.6zM87 15v6.8c0 1.5.8 2.2 2.2 2.2.7 0 1.6-.1 2.2-.3l.4 2.4c-.7.3-1.9.5-3 .5-2.9 0-4.7-1.6-4.7-4.4V15h-2.4v-2.4h2.5V8.2H87v4.4h4V15h-4zM97.2 14.8c.8-1.5 2.1-2.2 3.6-2.2 1.1 0 1.9.3 1.9.3l-.3 2.6c-.2-.1-.8-.3-1.7-.3-1.5 0-3.5.8-3.5 3.9v7.5h-2.8V12.9h2.8v1.9zM103.7 19.4c0-4.2 3-7.1 6.9-7.1 2.3 0 3.9.9 4.9 2.2v-1.9h2.8v13.7h-2.8v-1.9c-1 1.3-2.6 2.2-4.9 2.2-3.9 0-6.9-3-6.9-7.2zm7.2-4.5c-2.6 0-4.4 2-4.4 4.5s1.8 4.7 4.4 4.7 4.5-2.1 4.5-4.7-1.9-4.5-4.5-4.5zM129.3 12.3c1.8 0 3.5.6 4.1.9l-.3 2.5c-1-.4-2.2-.8-3.8-.8-2.9 0-4.9 1.8-4.9 4.4 0 2.7 2 4.6 5 4.6 1.3 0 2.8-.3 3.8-.8l.4 2.6c-1.3.5-2.7.9-4.3.9-4.6 0-7.8-2.9-7.8-7.2 0-4.2 3.2-7.1 7.8-7.1zM140.3 15v6.8c0 1.5.8 2.2 2.2 2.2.7 0 1.6-.1 2.2-.3l.4 2.4c-.7.3-1.9.5-3 .5-2.9 0-4.7-1.6-4.7-4.4V15H135v-2.4h2.5V8.2h2.8v4.4h4.1V15h-4.1z" style="fill:#08c"/><path d="M151.1 26.6h-3V7.2h13.5v2.7h-10.5v5.4h8.2V18h-8.2v8.6zM167.2 26.6h-2.8V7.2h2.8v19.4zM177.7 12.3c4.2 0 7.3 3.1 7.3 7.1s-3.1 7.1-7.3 7.1-7.3-3.1-7.3-7.1 3.2-7.1 7.3-7.1zm0 11.6c2.6 0 4.4-2 4.4-4.5s-1.9-4.5-4.4-4.5-4.4 2-4.4 4.5 1.9 4.5 4.4 4.5zM201.9 23.8l3-10.9h3l-4 13.7H200l-2.8-9.7-2.8 9.7h-3.8l-4-13.7h3l3 10.9 3.2-10.8h3l3.1 10.8z" style="fill:#333334"/><path d="m24.6 17.4-5.3 6.4 5.8 6.9c.6.7 1.7 1.3 2.5 1.3h8c.7 0 .8-.6.2-1.3L24.6 17.4zM11.6 14.6 17 8.3l-5.8-6.9C10.5.6 9.4 0 8.7 0h-8C0 0-.1.6.5 1.3l11.1 13.3z" style="fill:#08c"/><path d="M8.7 32h-8c-.7 0-.8-.6-.2-1.3L25.1 1.3C25.7.6 26.8 0 27.6 0h8c.7 0 .8.6.2 1.3L11.2 30.7c-.7.7-1.8 1.3-2.5 1.3zM26.4 15.3l4.7-5.6c.3-.4.9-.7 1.4-.7h12.8c.4 0 .5.3.1.7l-4.7 5.6c-.3.4-.9.7-1.4.7H26.5c-.4 0-.5-.3-.1-.7zM33.9 6.3 38.5.8C38.9.4 39.6 0 40 0h16.1c.5 0 .5.4.1.8l-4.6 5.5c-.4.5-1.1.8-1.5.8h-16c-.5 0-.6-.4-.2-.8zM227.2 22.5h-9.8l-1.6 4h-3.2l8-19.4h3.3l8 19.4h-3.2l-1.5-4zm-9-2.5h8.1l-4-9.5-4.1 9.5zM237.6 20.6v5.9h-3V7.2h8.8c3.6 0 6.8 2.1 6.8 6.8 0 4.2-3.1 6.7-6.8 6.7h-5.8zm0-10.7v8h5.2c2.3 0 4.2-1.5 4.2-4 0-2.7-1.9-4.1-4.2-4.1h-5.2zM256.6 26.6h-3V7.2h3v19.4z" style="fill:#333334"/></svg>