<?xml version="1.0" encoding="utf-8"?>
<!-- Generator: Adobe Illustrator 27.8.1, SVG Export Plug-In . SVG Version: 6.00 Build 0)  -->
<svg version="1.1" id="Layer_1" xmlns="http://www.w3.org/2000/svg" xmlns:xlink="http://www.w3.org/1999/xlink" x="0px" y="0px"
	 viewBox="0 0 208 32" style="enable-background:new 0 0 208 32;" xml:space="preserve">
<g>
	<g>
		<path style="fill:#0088CC;" d="M67.1,26.6h-3.7l7.1-9.9l-6.6-9.5h3.7l5,7.1l5-7.1h3.7l-6.8,9.4l7.2,9.9h-3.7L72.5,19L67.1,26.6z"
			/>
		<path style="fill:#0088CC;" d="M87,15v6.8c0,1.5,0.8,2.2,2.2,2.2c0.7,0,1.6-0.1,2.2-0.3l0.4,2.4c-0.7,0.3-1.9,0.5-3,0.5
			c-2.9,0-4.7-1.6-4.7-4.4V15h-2.4v-2.4h2.5V8.2H87v4.4H91V15H87z"/>
		<path style="fill:#0088CC;" d="M97.2,14.8c0.8-1.5,2.1-2.2,3.6-2.2c1.1,0,1.9,0.3,1.9,0.3l-0.3,2.6c-0.2-0.1-0.8-0.3-1.7-0.3
			c-1.5,0-3.5,0.8-3.5,3.9v7.5h-2.8V12.9h2.8V14.8z"/>
		<path style="fill:#0088CC;" d="M103.7,19.4c0-4.2,3-7.1,6.9-7.1c2.3,0,3.9,0.9,4.9,2.2v-1.9h2.8v13.7h-2.8v-1.9
			c-1,1.3-2.6,2.2-4.9,2.2C106.7,26.6,103.7,23.6,103.7,19.4z M110.9,14.9c-2.6,0-4.4,2-4.4,4.5s1.8,4.7,4.4,4.7
			c2.6,0,4.5-2.1,4.5-4.7S113.5,14.9,110.9,14.9z"/>
		<path style="fill:#0088CC;" d="M129.3,12.3c1.8,0,3.5,0.6,4.1,0.9l-0.3,2.5c-1-0.4-2.2-0.8-3.8-0.8c-2.9,0-4.9,1.8-4.9,4.4
			c0,2.7,2,4.6,5,4.6c1.3,0,2.8-0.3,3.8-0.8l0.4,2.6c-1.3,0.5-2.7,0.9-4.3,0.9c-4.6,0-7.8-2.9-7.8-7.2
			C121.5,15.2,124.7,12.3,129.3,12.3z"/>
		<path style="fill:#0088CC;" d="M140.3,15v6.8c0,1.5,0.8,2.2,2.2,2.2c0.7,0,1.6-0.1,2.2-0.3l0.4,2.4c-0.7,0.3-1.9,0.5-3,0.5
			c-2.9,0-4.7-1.6-4.7-4.4V15h-2.4v-2.4h2.5V8.2h2.8v4.4h4.1V15H140.3z"/>
	</g>
	<g>
		<path style="fill:#FFFFFF;" d="M151.1,26.6h-3V7.2h13.5v2.7h-10.5v5.4h8.2v2.7h-8.2V26.6z"/>
		<path style="fill:#FFFFFF;" d="M167.2,26.6h-2.8V7.2h2.8V26.6z"/>
		<path style="fill:#FFFFFF;" d="M177.7,12.3c4.2,0,7.3,3.1,7.3,7.1s-3.1,7.1-7.3,7.1c-4.2,0-7.3-3.1-7.3-7.1S173.6,12.3,177.7,12.3
			z M177.7,23.9c2.6,0,4.4-2,4.4-4.5s-1.9-4.5-4.4-4.5s-4.4,2-4.4,4.5S175.2,23.9,177.7,23.9z"/>
		<path style="fill:#FFFFFF;" d="M201.9,23.8l3-10.9h3l-4,13.7H200l-2.8-9.7l-2.8,9.7h-3.8l-4-13.7h3l3,10.9l3.2-10.8h3L201.9,23.8z
			"/>
	</g>
</g>
<g>
	<path style="fill:#0088CC;" d="M24.6,17.4l-5.3,6.4l5.8,6.9c0.6,0.7,1.7,1.3,2.5,1.3h8c0.7,0,0.8-0.6,0.2-1.3L24.6,17.4z"/>
	<path style="fill:#0088CC;" d="M11.6,14.6L17,8.3l-5.8-6.9C10.5,0.6,9.4,0,8.7,0h-8C0,0-0.1,0.6,0.5,1.3L11.6,14.6z"/>
</g>
<g>
	<path style="fill:#FFFFFF;" d="M8.7,32h-8c-0.7,0-0.8-0.6-0.2-1.3L25.1,1.3C25.7,0.6,26.8,0,27.6,0h8c0.7,0,0.8,0.6,0.2,1.3
		L11.2,30.7C10.5,31.4,9.4,32,8.7,32z"/>
	<path style="fill:#FFFFFF;" d="M26.4,15.3l4.7-5.6c0.3-0.4,0.9-0.7,1.4-0.7h12.8c0.4,0,0.5,0.3,0.1,0.7l-4.7,5.6
		c-0.3,0.4-0.9,0.7-1.4,0.7H26.5C26.1,16,26,15.7,26.4,15.3z"/>
	<path style="fill:#FFFFFF;" d="M33.9,6.3l4.6-5.5C38.9,0.4,39.6,0,40,0h16.1c0.5,0,0.5,0.4,0.1,0.8l-4.6,5.5
		c-0.4,0.5-1.1,0.8-1.5,0.8H34.1C33.6,7.1,33.5,6.7,33.9,6.3z"/>
</g>
</svg>
